<?xml version="1.0" encoding="utf-8"?>
<!-- Uploaded to: SVG Repo, www.svgrepo.com, Generator: SVG Repo Mixer Tools -->
<svg width="63px" height="63px" viewBox="0 0 1024 1024" class="icon"  version="1.1" xmlns="http://www.w3.org/2000/svg"><path d="M397.790711 677.419937h28.66879v84.982482h-28.66879zM314.856 642.607836h27.644904v82.934711h-27.644904zM244.207913 613.939047h28.668789v84.982482h-28.668789zM594.376694 677.419937h28.668789v84.982482h-28.668789zM679.359176 642.607836h26.621018v82.934711h-26.621018zM747.959493 613.939047h28.668789v84.982482h-28.668789zM874.921273 684.587134h69.624202v27.644904h-69.624202zM874.921273 725.542547h69.624202v28.668789h-69.624202z" fill="#FF7415" /><path d="M220.365719 390.732046l249.096965-102.401843v90.898491c0 7.691427-3.670629 11.503352-11.362055 11.503352H220.365719zM551.37351 379.228694c0 7.691427 10.910522 11.503352 18.601949 11.503352h237.734909L551.37351 288.330203v90.898491z" fill="#E0E0E0" /><path d="M936.762923 481.974563c12.065465-5.312941 21.093062-19.344265 21.093061-32.632249v-28.351385c0-13.274673-7.254228-27.305998-19.319692-32.632249L557.228086 219.617259c-11.970243-5.291439-27.173917-8.200298-43.650279-8.200298s-31.91041 2.908858-43.880653 8.194155L85.804662 388.35868c-12.065465 5.326251-22.824452 19.3586-22.824452 32.632249v28.351385c0 13.274673 8.622138 27.305998 20.688627 32.632249l104.225383 46.221255v121.755323c0 20.635385 17.266802 43.189531 36.433935 51.348873l244.589822 103.572144c12.338842 5.244341 28.729198 7.866511 44.557442 7.866511s31.938055-2.62217 44.275873-7.866511L799.987201 701.292847c19.167133-8.153199 32.954773-30.707345 32.954773-51.341706V528.195818l61.43312-27.783128v103.85576c-6.143312 2.895548-13.310509 10.583903-13.310509 19.688291v15.829267c-6.143312 8.857632-21.501592 23.520694-21.501592 40.107636v83.906378c0 26.985522 22.160974 48.945814 49.146496 48.945814s49.146496-21.960292 49.146495-48.945814V679.893644c0-16.587966-6.143312-31.251028-21.501592-40.107636v-15.829267c0-9.103364 0-16.792743-13.310509-19.688291V488.063609l13.71904-6.089046z m-5.527957 281.825459c0 11.566833-9.934759 20.976339-21.501592 20.976339s-21.501592-9.409506-21.501592-20.976339V679.893644c0-11.566833 9.934759-20.976339 21.501592-20.976339s21.501592 9.409506 21.501592 20.976339v83.906378z m-839.585967-314.457708v-28.351385c0-2.274049 3.899979-6.152527 5.914986-7.040235l382.94335-168.754732c8.371286-3.694178 20.685555-5.810549 33.173885-5.810549 12.489353 0 24.623418 2.116371 32.995728 5.817716L927.827475 413.950694c2.013982 0.887709 3.40749 4.766186 3.407491 7.040235v28.351385c0 2.225927-1.345385 6.173005-3.318413 7.040235L546.27149 625.137281c-8.371286 3.694178-20.036412 5.810549-32.524742 5.810549s-24.29987-2.116371-32.671156-5.817717L97.491289 456.381525c-2.015006-0.887709-5.84229-4.766186-5.84229-7.039211z m712.624186 200.608827c0 9.580495-6.46174 21.789304-15.447357 25.606349L544.586174 779.129633c-5.353896 2.280193-13.690371 3.781209-19.833682 4.674037v-84.881117h-28.668789v84.881117c-6.143312-0.892828-11.718368-2.393844-17.073288-4.674037L234.63868 675.564657c-8.985618-3.824212-18.075672-16.03302-18.075671-25.613516V540.542851l251.463164 110.173133c11.970243 5.292463 28.58483 8.201321 45.061193 8.201321s30.897787-2.908858 42.868031-8.194154L804.273185 540.542851v109.40829z" fill="#262626" /><path d="M496.083703 285.271858h28.668789v293.855088h-28.668789zM132.604412 417.353064h336.858272v28.66879h-336.858272zM551.37351 417.353064h336.858272v28.66879h-336.858272zM581.066185 502.335546h48.12261v-26.621018h-77.815285v76.791399h29.692675zM391.647399 502.335546h48.122611v50.170381h29.692674v-76.791399h-77.815285zM657.857584 475.714528h55.289807v26.621018h-55.289807zM307.688803 475.714528h55.289807v26.621018h-55.289807z" fill="#262626" /></svg>
