<?xml version="1.0" encoding="UTF-8" standalone="no"?>
<svg
   version="1.1"
   id="Layer_1"
   x="0px"
   y="0px"
   width="48.443863"
   height="43.05439"
   viewBox="0 0 83.615435 65.714595"
   enable-background="new 0 0 378 145"
   xml:space="preserve"
   sodipodi:docname="cdiaria_ico.svg"
   inkscape:version="1.1.2 (0a00cf5339, 2022-02-04)"
   xmlns:inkscape="http://www.inkscape.org/namespaces/inkscape"
   xmlns:sodipodi="http://sodipodi.sourceforge.net/DTD/sodipodi-0.dtd"
   xmlns="http://www.w3.org/2000/svg"
   xmlns:svg="http://www.w3.org/2000/svg"><defs
   id="defs157" /><sodipodi:namedview
   id="namedview155"
   pagecolor="#ffffff"
   bordercolor="#666666"
   borderopacity="1.0"
   inkscape:pageshadow="2"
   inkscape:pageopacity="0.0"
   inkscape:pagecheckerboard="0"
   showgrid="false"
   inkscape:zoom="5.5115583"
   inkscape:cx="86.817552"
   inkscape:cy="35.924504"
   inkscape:window-width="1920"
   inkscape:window-height="1043"
   inkscape:window-x="0"
   inkscape:window-y="0"
   inkscape:window-maximized="1"
   inkscape:current-layer="Layer_1" />



<path
   fill="#f87171"
   opacity="1"
   stroke="none"
   d="m 76.440357,-4.0710612 c 2.08104,2.805687 4.34481,5.164776 5.618,7.972976 3.12856,6.9004522 1.71368,9.1637392 -5.80553,10.3952642 3.98795,23.777065 -0.26276,28.756908 -31.263723,36.6264 -0.824356,7.618 0.187264,8.81824 7.451539,8.82069 8.66513,0.003 17.335098,-0.14808 25.991084,0.13317 1.62356,0.0528 3.19126,1.82435 4.78473,2.80276 -1.63784,0.71067 -3.27126,2.0277 -4.91417,2.03963 -19.662143,0.14286 -39.326122,0.14632 -58.988033,-0.0123 -1.556217,-0.0126 -3.100525,-1.50154 -4.65036,-2.30437 1.524944,-0.88517 2.966408,-2.26816 4.594025,-2.5411 2.565593,-0.43024 5.256301,-0.11443 9.374149,-0.11443 -1.505543,-3.60565 -1.921143,-7.567 -3.929543,-8.69675 -2.82016,-1.586366 -6.643795,-1.039781 -9.484817,2.06988 -1.675923,1.8344 -5.2355584,4.56987 -6.1611224,3.99965 -3.433563,-2.11535 -6.282754,-5.30066 -8.94707997,-8.428509 -0.466156,-0.547264 0.644972,-3.123108 1.65489597,-4.137696 C 13.045116,33.221296 24.491168,22.053045 35.78337,10.731416 37.976615,8.5324638 40.135764,6.0939758 41.566161,3.3744098 48.697677,-10.184396 63.726966,-13.612657 76.440357,-4.0710612 m -29.16486,7.989223 c 0.336883,1.699505 0.345421,3.554413 1.064232,5.073147 4.479759,9.4649472 4.42247,18.5528142 -1.737381,27.3176082 -0.658928,0.937576 -1.046723,2.065697 -1.99009,3.975555 11.764267,-6.451622 19.073433,-15.290451 22.966301,-26.869903 1.121498,-3.335953 2.695145,-5.1493082 6.371318,-4.7069742 1.10772,0.133285 2.26565,-0.150757 3.72114,-0.269856 -1.1308,-6.750435 -5.31679,-10.413898 -11.268361,-12.080955 -7.780617,-2.179379 -14.010208,0.501987 -19.127159,7.561378 M 23.177295,30.641322 c -5.591568,5.602119 -11.18314,11.204246 -17.0549514,17.087143 1.368531,1.255142 2.387394,2.18959 3.87003,3.549384 3.5375254,-5.920844 9.1751524,-5.765746 14.7530294,-6.838752 4.954074,-0.953003 10.189823,-3.410827 14.004825,-6.705559 8.253067,-7.127555 9.640709,-18.134346 4.332062,-25.935062 -0.426056,0.168224 -0.985375,0.228378 -1.300926,0.53743 -6.047005,5.922581 -12.06538,11.874401 -18.604069,18.305416 m 36.434452,11.590591 c 11.268272,-5.202873 15.9157,-13.953147 12.19702,-21.530746 -6.520636,7.598022 -13.254454,15.44445 -20.676016,24.092255 2.867729,-0.845147 5.318878,-1.567528 8.478996,-2.561509 M 39.785682,55.972989 c -0.535446,-4.73482 -2.728348,-6.880678 -8.149078,-4.69779 0.476081,2.15963 0.457275,4.69632 1.618934,6.45191 0.818539,1.23704 3.206848,1.62879 4.971276,1.90366 0.414863,0.0646 1.140296,-1.86429 1.558868,-3.65778 z"
   id="path106" />














<path
   fill="#fdf9f9"
   opacity="1"
   stroke="none"
   d="m 47.482856,3.6145918 c 4.909592,-6.755821 11.139183,-9.437187 18.9198,-7.257808 5.951571,1.667057 10.137561,5.33052 11.268361,12.080955 -1.45549,0.119099 -2.61342,0.403141 -3.72114,0.269856 -3.676173,-0.442334 -5.24982,1.3710212 -6.371318,4.7069742 -3.892868,11.579452 -11.202034,20.418281 -22.966301,26.869903 0.943367,-1.909858 1.331162,-3.037979 1.99009,-3.975555 6.159851,-8.764794 6.21714,-17.852661 1.737381,-27.3176082 -0.718811,-1.518734 -0.727349,-3.373642 -0.856873,-5.376717 z"
   id="path136" />
<path
   fill="#fcf9f9"
   opacity="1"
   stroke="none"
   d="m 23.434493,30.3987 c 6.281491,-6.188393 12.299866,-12.140213 18.346871,-18.062794 0.315551,-0.309052 0.87487,-0.369206 1.300926,-0.53743 5.308647,7.800716 3.921005,18.807507 -4.332062,25.935062 -3.815002,3.294732 -9.050751,5.752556 -14.004825,6.705559 -5.577877,1.073006 -11.215504,0.917908 -14.7530294,6.838752 -1.482636,-1.359794 -2.501499,-2.294242 -3.87003,-3.549384 C 11.994155,41.845568 17.585727,36.243441 23.434493,30.3987 Z"
   id="path138" />
<path
   fill="#faefef"
   opacity="1"
   stroke="none"
   d="m 59.257262,42.367717 c -2.805633,0.858177 -5.256782,1.580558 -8.124511,2.425705 7.421562,-8.647805 14.15538,-16.494233 20.676016,-24.092255 3.71868,7.577599 -0.928748,16.327873 -12.551505,21.66655 z"
   id="path140" />
<path
   fill="#f8ecec"
   opacity="1"
   stroke="none"
   d="m 39.867675,56.363839 c -0.500565,1.40264 -1.225998,3.33155 -1.640861,3.26693 -1.764428,-0.27487 -4.152737,-0.66662 -4.971276,-1.90366 -1.161659,-1.75559 -1.142853,-4.29228 -1.618934,-6.45191 5.42073,-2.182888 7.613632,-0.037 8.231071,5.08864 z"
   id="path142" />





</svg>
