<?xml version="1.0" encoding="UTF-8" standalone="no"?>
<svg
   sodipodi:docname="cdiaria_ico.svg"
   xml:space="preserve"
   enable-background="new 0 0 378 145"
   viewBox="0 0 343.4814 74.998356"
   height="49.136856"
   width="199.00113"
   y="0px"
   x="0px"
   id="Layer_1"
   version="1.1"
   inkscape:version="1.1.2 (0a00cf5339, 2022-02-04)"
   xmlns:inkscape="http://www.inkscape.org/namespaces/inkscape"
   xmlns:sodipodi="http://sodipodi.sourceforge.net/DTD/sodipodi-0.dtd"
   xmlns="http://www.w3.org/2000/svg"
   xmlns:svg="http://www.w3.org/2000/svg"><defs
   id="defs157" /><sodipodi:namedview
   id="namedview155"
   pagecolor="#ffffff"
   bordercolor="#666666"
   borderopacity="1.0"
   inkscape:pageshadow="2"
   inkscape:pageopacity="0.0"
   inkscape:pagecheckerboard="0"
   showgrid="false"
   inkscape:zoom="5.5115583"
   inkscape:cx="106.86633"
   inkscape:cy="38.646057"
   inkscape:window-width="1920"
   inkscape:window-height="1043"
   inkscape:window-x="0"
   inkscape:window-y="0"
   inkscape:window-maximized="1"
   inkscape:current-layer="Layer_1" />
<path
   fill="#fcfcfc"
   opacity="1"
   stroke="none"
   d="M 2.0594433e-4,-7.7245844 H 343.48139 V 77.086972 c -114.15048,0 -228.38533,0 -343.05315906,-0.274124 -0.43135,-28.361897 -0.429687,-56.449661 -0.42802499567,-84.5374324"
   id="path100"
   style="fill:#f7f8fa;fill-opacity:1;stroke-width:0.733014"
   sodipodi:nodetypes="ccccc" />


<path
   fill="#f87171"
   opacity="1"
   stroke="none"
   d="m 76.267667,3.3954266 c 2.081036,2.805687 4.344806,5.164776 5.617996,7.9729764 3.12856,6.900452 1.71368,9.163739 -5.805526,10.395264 3.987946,23.777065 -0.26276,28.756908 -31.263723,36.6264 -0.824356,7.618 0.187264,8.81824 7.451539,8.82069 8.66513,0.003 17.335098,-0.14808 25.99108,0.13317 1.62356,0.0528 3.19126,1.82435 4.78473,2.80276 -1.63784,0.71067 -3.27126,2.0277 -4.91417,2.03963 -19.662139,0.14286 -39.326118,0.14632 -58.988029,-0.0123 -1.556217,-0.0126 -3.100525,-1.50154 -4.65036,-2.30437 1.524944,-0.88517 2.966408,-2.26816 4.594025,-2.5411 2.565593,-0.43024 5.256301,-0.11443 9.374149,-0.11443 -1.505543,-3.60565 -1.921143,-7.567 -3.929543,-8.69675 -2.82016,-1.586366 -6.643795,-1.039781 -9.484817,2.06988 -1.675923,1.8344 -5.2355581,4.56987 -6.1611221,3.99965 -3.433563,-2.11535 -6.282754,-5.30066 -8.94707996,-8.428509 -0.466156,-0.547264 0.644972,-3.123108 1.65489596,-4.137696 C 12.872426,40.687784 24.318478,29.519533 35.61068,18.197904 37.803925,15.998952 39.963074,13.560464 41.393471,10.840898 48.524987,-2.7179084 63.554276,-6.1461694 76.267667,3.3954266 M 47.102807,11.38465 c 0.336883,1.699505 0.345421,3.554413 1.064232,5.073147 4.479759,9.464947 4.42247,18.552814 -1.737381,27.317608 -0.658928,0.937576 -1.046723,2.065697 -1.99009,3.975555 11.764267,-6.451622 19.073433,-15.290451 22.966301,-26.869903 1.121498,-3.335953 2.695145,-5.149308 6.371318,-4.706974 1.10772,0.133285 2.26565,-0.150757 3.72114,-0.269856 C 76.367527,9.1537916 72.181537,5.4903286 66.229966,3.8232716 58.449349,1.6438926 52.219758,4.3252586 47.102807,11.38465 M 23.004605,38.10781 c -5.591568,5.602119 -11.18314,11.204246 -17.0549511,17.087143 1.368531,1.255142 2.387394,2.18959 3.87003,3.549384 3.5375251,-5.920844 9.1751521,-5.765746 14.7530291,-6.838752 4.954074,-0.953003 10.189823,-3.410827 14.004825,-6.705559 8.253067,-7.127555 9.640709,-18.134346 4.332062,-25.935062 -0.426056,0.168224 -0.985375,0.228378 -1.300926,0.53743 -6.047005,5.922581 -12.06538,11.874401 -18.604069,18.305416 m 36.434452,11.590591 c 11.268272,-5.202873 15.9157,-13.953147 12.19702,-21.530746 -6.520636,7.598022 -13.254454,15.44445 -20.676016,24.092255 2.867729,-0.845147 5.318878,-1.567528 8.478996,-2.561509 M 39.612992,63.439477 c -0.535446,-4.73482 -2.728348,-6.880678 -8.149078,-4.69779 0.476081,2.15963 0.457275,4.69632 1.618934,6.45191 0.818539,1.23704 3.206848,1.62879 4.971276,1.90366 0.414863,0.0646 1.140296,-1.86429 1.558868,-3.65778 z"
   id="path106" />
<path
   fill="#292929"
   opacity="1"
   stroke="none"
   d="m 289.39024,-0.06251636 c -3.22248,0.368042 -6.0546,0.532238 -8.74009,1.24722296 -0.93826,0.249805 -1.51513,1.856975 -2.25708,2.844265 0.99076,0.712661 1.92142,1.922481 2.98279,2.050777 4.28919,0.518459 8.69205,0.32328 12.90891,1.137501 3.12643,0.603672 6.63742,1.691807 8.89911,3.7492064 3.93023,3.575245 2.52945,10.618164 -2.55207,13.117474 -8.58123,4.220657 -17.4519,3.723869 -25.95135,-0.37439 -1.29559,-0.624717 -1.57617,-3.354576 -2.3262,-5.110767 1.7594,-0.109383 3.80954,-0.859329 5.22717,-0.215809 5.73465,2.603203 11.57663,3.202332 17.48801,1.356133 1.47857,-0.461777 2.42855,-2.616036 3.62149,-3.992424 -1.42292,-0.910115 -2.76865,-2.424946 -4.28308,-2.618321 -4.77417,-0.609615 -9.62873,-0.56443 -14.41962,-1.076824 -4.27203,-0.456902 -7.71649,-2.2039034 -8.22894,-7.1594664 -0.47168,-4.56130196 1.79528,-8.115402 6.85116,-9.685673 7.37741,-2.291298 14.83258,-2.446178 21.77197,1.398018 1.50141,0.831738 2.11982,3.25747304 3.14496,4.949005 -2.02548,0.153866 -4.09637,0.644001 -6.06524,0.378281 -2.58335,-0.348663 -5.08634,-1.29320096 -8.0719,-1.99420896 z"
   id="path108" />
<path
   fill="#292929"
   opacity="1"
   stroke="none"
   d="m 250.0377,6.8299316 c 2.90088,0.409031 5.397,0.634518 7.80716,1.216225 3.77499,0.911114 6.07068,3.3691334 6.48407,7.3020514 0.42846,4.076287 -1.14514,7.366406 -4.88556,9.001484 -8.5528,3.738762 -17.21088,3.437516 -25.55084,-0.631965 -1.31388,-0.641114 -1.75901,-3.062577 -2.60584,-4.660858 1.84564,-0.265137 4.03394,-1.300683 5.47626,-0.659108 5.58752,2.485474 11.27121,3.161187 17.02957,1.487137 1.65964,-0.482475 2.81601,-2.695873 4.20309,-4.115696 -1.60678,-0.933174 -3.13397,-2.457847 -4.83547,-2.686676 -4.77106,-0.641655 -9.63108,-0.59198 -14.42347,-1.113842 -4.15646,-0.45261 -7.31762,-2.4450914 -7.8005,-7.0440444 -0.4834,-4.60436296 1.75381,-7.854431 5.91711,-9.350346 7.64569,-2.747162 15.42328,-2.939533 22.71243,1.029709 1.50162,0.817669 1.97336,3.52662604 2.9198,5.363853 -1.93225,0.02112 -3.87353,0.172047 -5.79507,0.03856 -5.34372,-0.371212 -10.67603,-1.04352896 -16.021,-1.13928996 -0.99444,-0.01782 -2.02707,2.09496296 -3.04205,3.22444896 1.16595,0.713139 2.26181,1.84459 3.51215,2.0541 2.77722,0.465344 5.63183,0.468712 8.89816,0.684254 z"
   id="path110" />
<path
   fill="#2a2a2a"
   opacity="1"
   stroke="none"
   d="m 110.83595,55.259162 c 0.002,-11.31485 0.003,-11.398865 11.08435,-11.271584 4.13708,0.04752 8.38064,0.09714 12.37864,1.009285 7.79955,1.779511 11.96689,7.412987 11.96366,15.104294 -0.003,7.46563 -3.98032,13.49082 -11.53612,14.87382 -6.62242,1.21215 -13.56436,0.99746 -20.34161,0.755 -1.23922,-0.0443 -3.20496,-3.16687 -3.38183,-5.00812 -0.47579,-4.95277 -0.16542,-9.98105 -0.16709,-15.462695 m 13.17907,-5.251495 c -2.20024,0.581657 -6.24098,1.001297 -6.30871,1.770675 -0.52808,5.998741 -0.29201,12.064755 -0.29201,18.773075 5.80896,-0.49785 10.79086,-0.55439 15.61862,-1.44578 4.56522,-0.8429 6.34725,-4.52799 6.43692,-8.89522 0.0906,-4.411193 -1.77009,-7.880393 -6.17746,-9.143882 -2.6608,-0.762802 -5.54896,-0.732491 -9.27736,-1.058868 z"
   id="path112" />
<path
   fill="#282828"
   opacity="1"
   stroke="none"
   d="m 245.09278,68.424337 c -3.29535,-5.77705 -8.29245,-3.32907 -13.45599,-3.6648 0,2.89588 0.36136,5.56033 -0.14221,8.04985 -0.28,1.38437 -2.00183,2.4771 -3.07386,3.70126 -1.13542,-1.17611 -3.21171,-2.31928 -3.25422,-3.53363 -0.28472,-8.13622 -0.39803,-16.303411 0.0932,-24.420599 0.0976,-1.61232 2.93819,-4.185646 4.70778,-4.361137 5.59597,-0.554977 11.293,-0.374825 16.93329,-0.10743 4.3273,0.205147 7.65594,2.417016 8.95941,6.731011 1.737,5.748726 -0.49671,10.026775 -5.99655,13.143585 2.01031,2.53561 4.07754,4.70227 5.56073,7.21384 0.66601,1.12784 0.16391,2.94552 0.19186,4.45018 -1.63846,-0.11537 -3.78223,0.37889 -4.81018,-0.47309 -2.13385,-1.76855 -3.6756,-4.25146 -5.71329,-6.72904 m -9.64688,-9.73368 c 3.30316,-0.009 6.70841,0.45897 9.86868,-0.21742 1.71579,-0.367235 3.01478,-2.681772 4.50177,-4.117945 -1.46691,-1.459678 -2.74652,-3.838897 -4.44052,-4.183998 -3.33301,-0.679016 -6.92416,-0.484154 -10.3493,-0.109321 -1.23673,0.13533 -3.23139,1.800872 -3.25586,2.807617 -0.0519,2.135139 -1.92539,5.768867 3.67523,5.821067 z"
   id="path114" />
<path
   fill="#262626"
   opacity="1"
   stroke="none"
   d="m 333.48658,26.337439 c -5.15207,-0.0046 -9.81741,-0.05154 -14.48166,-2.51e-4 -3.68814,0.04056 -5.58542,-1.586113 -5.56232,-5.385552 0.0436,-7.163543 0.005,-14.3275494 0.0157,-21.49134036 0.005,-3.45077204 1.67999,-5.24330604 5.20914,-5.23477204 7.16388,0.01733 14.33368,-0.14843 21.48633,0.133709 1.30343,0.05141 2.53698,1.873607 3.80279,2.878353 -1.26559,1.001728 -2.49383,2.80828104 -3.8031,2.86906004 -6.45135,0.299496 -12.92416,0.136162 -19.7207,0.136162 0,2.33667796 0,4.24782196 0,6.78975296 4.93854,0 9.89517,-0.219936 14.81167,0.127819 1.56934,0.111 3.03217,1.727879 4.54374,2.655735 -1.51941,1.0920074 -2.96836,2.9844024 -4.57154,3.1255954 -4.76529,0.419686 -9.59124,0.15041 -14.75601,0.15041 0,2.412804 0,4.464169 0,7.207619 5.01959,0 9.95416,-0.0016 14.88873,9.88e-4 1.49936,7.97e-4 3.16334,-0.39547 4.456,0.125042 1.58243,0.637176 2.85382,2.046779 4.2597,3.12241 -1.36453,0.927139 -2.61926,2.29689 -4.12134,2.669548 -1.88394,0.467384 -3.97073,0.117088 -6.45718,0.119712 z"
   id="path116" />
<path
   fill="#272727"
   opacity="1"
   stroke="none"
   d="m 216.06619,68.545917 c 0.71136,1.35504 1.62178,2.37302 1.66877,3.42942 0.0583,1.30963 -0.27859,3.50781 -1.01931,3.78461 -1.21096,0.45252 -3.9759,0.0211 -4.19904,-0.65768 -2.59885,-7.90442 -9.05295,-6.03138 -14.78718,-6.27346 -4.93157,-0.2082 -9.56301,-0.43821 -11.62604,5.58882 -0.3292,0.96174 -2.92343,1.14818 -4.47052,1.69304 -0.34987,-1.5843 -1.48729,-3.56188 -0.92388,-4.69011 4.15187,-8.3141 8.4538,-16.568034 13.09964,-24.615092 2.73767,-4.741928 7.87499,-4.506775 10.70053,0.39534 3.97762,6.900802 7.5992,14.006832 11.55703,21.345112 M 196.66105,54.868873 c -1.20157,2.410225 -2.40314,4.820454 -3.75917,7.540554 4.48933,0 8.17287,0 12.55209,0 -2.24028,-4.16595 -4.14853,-7.714459 -6.2967,-11.709126 -0.94178,1.577423 -1.52868,2.560463 -2.49622,4.168572 z"
   id="path118" />
<path
   fill="#272727"
   opacity="1"
   stroke="none"
   d="m 206.3762,-6.2196674 c 2.0462,1.502228 4.2863,2.643403 5.34134,4.469334 4.23295,7.325832 8.24118,14.7936944 11.9776,22.3837514 0.72995,1.4828 -0.12136,3.744015 -0.24332,5.646198 -1.84389,-0.889206 -4.69154,-1.324257 -5.33884,-2.754867 -1.76881,-3.909405 -4.4071,-4.895607 -8.28367,-4.491032 -2.30066,0.240105 -4.66605,0.23383 -6.96852,0.0022 -4.32871,-0.435536 -7.6834,0.247467 -9.54552,4.959404 -0.48192,1.219436 -3.32957,1.503944 -5.09053,2.217903 -0.17607,-1.751297 -1.07242,-3.860092 -0.40979,-5.195084 3.90962,-7.876686 8.00067,-15.6801224 12.46262,-23.2537274 1.08122,-1.835239 3.78837,-2.712566 6.09863,-3.984051 m 2.87553,13.324875 c -1.00998,-1.885879 -2.01996,-3.771759 -3.40399,-6.35609396 -2.263,4.22441496 -4.23549,7.90650196 -6.37712,11.90438136 4.55898,0 8.25554,0 12.56842,0 -0.9937,-2.014801 -1.70447,-3.4559484 -2.78731,-5.5482874 z"
   id="path120" />
<path
   fill="#272727"
   opacity="1"
   stroke="none"
   d="m 314.43894,68.866687 c -2.47821,1e-5 -4.50161,0.20414 -6.46847,-0.0425 -4.09922,-0.514 -6.88632,0.58651 -8.64942,4.72554 -0.56201,1.31937 -3.28445,1.71846 -5.01837,2.53864 -0.19192,-1.8767 -1.15274,-4.13091 -0.44757,-5.56719 3.81006,-7.76052 7.91199,-15.386417 12.15366,-22.923473 3.09219,-5.494537 8.08969,-5.682037 11.21273,-0.301918 4.50779,7.765549 8.71531,15.716061 12.71479,23.754911 0.62643,1.25912 -0.52442,3.40247 -0.85349,5.13696 -1.64462,-0.74004 -4.31091,-1.09908 -4.75393,-2.28719 -1.758,-4.71439 -5.02884,-5.69324 -9.88993,-5.0338 m 1.83454,-6.09377 c 0.37457,-0.56665 1.20495,-1.35631 1.05362,-1.66563 -1.60446,-3.279293 -3.36506,-6.482196 -5.58063,-10.640834 -2.44806,4.607917 -4.31564,8.123154 -6.56293,12.353134 4.06851,0 7.16046,0 11.08994,-0.0467 z"
   id="path122" />
<path
   fill="#292929"
   opacity="1"
   stroke="none"
   d="m 143.33262,2.2543126 c -2.10342,-1.5e-5 -3.92862,-0.257598 -5.75531,-0.504062 -4.02126,-0.542565 -8.12036,-1.82939896 -12.04509,-1.42575896 -4.72774,0.486233 -7.45276,4.06261096 -7.93938,8.93028296 -0.48929,4.8942344 1.89148,8.9237634 6.4769,10.6591264 4.78554,1.811108 9.34995,1.15802 13.92194,-1.235336 1.49319,-0.781654 3.7341,-0.134987 5.63304,-0.141556 -0.86339,1.8419 -1.22183,4.452034 -2.67017,5.404022 -11.47311,7.541275 -28.57434,0.916993 -30.08856,-11.436313 -0.97676,-7.9686854 2.85825,-14.5757374 10.41814,-17.2805144 6.7015,-2.397659 13.48919,-2.363617 19.67204,1.451603 1.43408,0.884933 1.79778,3.50456204 2.37645,5.578506 z"
   id="path124" />
<path
   fill="#2a2a2a"
   opacity="1"
   stroke="none"
   d="m 160.74613,43.94564 c 3.12337,8.54e-4 5.85855,-0.37043 8.42287,0.131416 1.74734,0.341965 3.25575,1.904899 4.87099,2.921883 -1.63068,1.012863 -3.21721,2.110305 -4.91429,2.995849 -0.65444,0.341469 -1.56006,0.201553 -2.59975,0.305901 0,6.616462 0,13.015638 0,18.121848 3.00506,1.88738 7.17721,3.39732 7.10318,4.65792 -0.28523,4.857105 -4.68788,2.68295 -7.4735,2.96187 -3.13014,0.31343 -6.36303,0.3947 -9.45918,-0.0557 -1.7498,-0.25457 -3.31456,-1.78086 -4.96268,-2.73432 1.54256,-1.05048 3.0277,-2.20538 4.65576,-3.10027 0.65502,-0.36004 1.62346,-0.14984 2.7822,-0.21907 0,-6.45099 0,-12.844183 0,-19.174932 -0.40051,-0.243248 -0.65222,-0.4898 -0.946,-0.559815 -2.4877,-0.592987 -6.71103,0.87188 -6.3649,-3.463272 0.32228,-4.036522 4.32375,-2.467705 6.92772,-2.78096 0.49208,-0.0592 0.99738,-0.0084 1.95758,-0.0083 z"
   id="path126" />
<path
   fill="#272727"
   opacity="1"
   stroke="none"
   d="m 278.41767,76.104947 c -3.30078,-9.1e-4 -6.1802,0.33396 -8.92767,-0.12348 -1.76431,-0.29374 -3.33441,-1.75404 -4.99155,-2.69146 1.52905,-1.06 3.00113,-2.22135 4.61569,-3.12929 0.63126,-0.35497 1.58262,-0.14079 2.73825,-0.2054 0,-6.55842 0,-12.911388 0,-19.172 -0.44842,-0.274231 -0.7008,-0.52063 -0.99636,-0.594719 -2.35111,-0.589425 -6.26194,0.824432 -6.22675,-3.113671 0.0384,-4.297203 3.99658,-2.928802 6.56598,-3.054474 3.47949,-0.170188 7.01263,-0.348808 10.44522,0.08712 1.75235,0.22255 3.33551,1.777497 4.99515,2.730217 -1.55869,1.06112 -3.0658,2.213456 -4.70175,3.137818 -0.64118,0.362282 -1.57105,0.213592 -2.71881,0.334373 0,6.55175 0,12.908626 0,19.526036 1.25888,0.0996 2.53137,-0.11402 3.47186,0.34808 1.41836,0.69691 2.60486,1.8657 3.88992,2.83391 -1.39801,1.0281 -2.69095,2.28081 -4.23263,3.00173 -0.95435,0.44627 -2.28662,0.0843 -3.92655,0.0852 z"
   id="path128" />
<path
   fill="#2d2d2d"
   opacity="1"
   stroke="none"
   d="m 172.37418,26.384582 c -5.12617,-0.0043 -9.7803,-0.03625 -14.43397,-0.004 -3.72466,0.02585 -5.48448,-1.784607 -5.47249,-5.491066 0.0237,-7.313156 -0.20967,-14.6361314 0.135,-21.9327664 0.083,-1.756924 1.84623,-4.726879 3.11927,-4.88654 3.45879,-0.433765 3.48926,2.652707 3.49179,5.22354204 0.007,6.77906396 0.002,13.55814336 0.002,20.97600136 6.07838,0 11.6667,-0.03839 17.25409,0.01784 2.42602,0.02441 5.75036,-0.439407 5.4936,3.095585 -0.0821,1.130516 -3.59393,2.164123 -5.6517,2.934395 -1.02057,0.382034 -2.30212,0.06684 -3.93784,0.06697 z"
   id="path130" />
<path
   fill="#4e4e4e"
   opacity="1"
   stroke="none"
   d="m 98.496323,65.127347 c 0,4.15834 0,7.82337 0,12.580785 -3.65059,-3.607255 -4.02225,-80.1059834 -0.9021,-85.0736424 1.74166,8.595589 0.66011,16.402042 0.85679,24.1072394 0.20363,7.977051 0.0453,15.96334 0.0453,23.945587 -1e-5,7.982239 -1e-5,15.964485 -1e-5,24.440031 z"
   id="path132" />
<path
   fill="#2f2f2f"
   opacity="1"
   stroke="none"
   d="m 192.47231,37.256873 c 2.57766,-2.579315 4.92675,-5.189316 7.82233,-6.841583 2.24596,-1.281578 5.3434,0.962234 3.96654,2.764366 -2.27979,2.983948 -6.23921,4.707832 -9.60643,6.774429 -0.18271,0.112145 -1.42604,-1.503853 -2.18244,-2.697212 z"
   id="path134" />
<path
   fill="#fdf9f9"
   opacity="1"
   stroke="none"
   d="m 47.310166,11.08108 c 4.909592,-6.7558214 11.139183,-9.4371874 18.9198,-7.2578084 5.951571,1.667057 10.137561,5.33052 11.268361,12.0809554 -1.45549,0.119099 -2.61342,0.403141 -3.72114,0.269856 -3.676173,-0.442334 -5.24982,1.371021 -6.371318,4.706974 -3.892868,11.579452 -11.202034,20.418281 -22.966301,26.869903 0.943367,-1.909858 1.331162,-3.037979 1.99009,-3.975555 6.159851,-8.764794 6.21714,-17.852661 1.737381,-27.317608 -0.718811,-1.518734 -0.727349,-3.373642 -0.856873,-5.376717 z"
   id="path136" />
<path
   fill="#fcf9f9"
   opacity="1"
   stroke="none"
   d="m 23.261803,37.865188 c 6.281491,-6.188393 12.299866,-12.140213 18.346871,-18.062794 0.315551,-0.309052 0.87487,-0.369206 1.300926,-0.53743 5.308647,7.800716 3.921005,18.807507 -4.332062,25.935062 -3.815002,3.294732 -9.050751,5.752556 -14.004825,6.705559 -5.577877,1.073006 -11.215504,0.917908 -14.7530291,6.838752 -1.482636,-1.359794 -2.501499,-2.294242 -3.87003,-3.549384 C 11.821465,49.312056 17.413037,43.709929 23.261803,37.865188 Z"
   id="path138" />
<path
   fill="#faefef"
   opacity="1"
   stroke="none"
   d="m 59.084572,49.834205 c -2.805633,0.858177 -5.256782,1.580558 -8.124511,2.425705 7.421562,-8.647805 14.15538,-16.494233 20.676016,-24.092255 3.71868,7.577599 -0.928748,16.327873 -12.551505,21.66655 z"
   id="path140" />
<path
   fill="#f8ecec"
   opacity="1"
   stroke="none"
   d="m 39.694985,63.830327 c -0.500565,1.40264 -1.225998,3.33155 -1.640861,3.26693 -1.764428,-0.27487 -4.152737,-0.66662 -4.971276,-1.90366 -1.161659,-1.75559 -1.142853,-4.29228 -1.618934,-6.45191 5.42073,-2.182888 7.613632,-0.037 8.231071,5.08864 z"
   id="path142" />
<path
   fill="#f6f6f6"
   opacity="1"
   stroke="none"
   d="m 124.48621,50.007819 c 3.25721,0.326225 6.14537,0.295914 8.80617,1.058716 4.40737,1.263489 6.26807,4.732689 6.17746,9.143882 -0.0897,4.36723 -1.8717,8.05232 -6.43692,8.89522 -4.82776,0.89139 -9.80966,0.94793 -15.61862,1.44578 0,-6.70832 -0.23607,-12.774334 0.29201,-18.773075 0.0677,-0.769378 4.10847,-1.189018 6.7799,-1.770523 z"
   id="path144" />
<path
   fill="#e6e6e6"
   opacity="1"
   stroke="none"
   d="m 234.99625,58.688607 c -5.15097,-0.0502 -3.27746,-3.683878 -3.22558,-5.819017 0.0245,-1.006745 2.01913,-2.672287 3.25586,-2.807617 3.42514,-0.374833 7.01629,-0.569695 10.3493,0.109321 1.694,0.345101 2.97361,2.72432 4.44052,4.183998 -1.48699,1.436173 -2.78598,3.75071 -4.50177,4.117945 -3.16027,0.67639 -6.56552,0.20847 -10.31833,0.21537 z"
   id="path146" />
<path
   fill="#dddddd"
   opacity="1"
   stroke="none"
   d="m 196.85137,54.556342 c 0.77722,-1.295578 1.36412,-2.278618 2.3059,-3.856041 2.14817,3.994667 4.05642,7.543176 6.2967,11.709126 -4.37922,0 -8.06276,0 -12.55209,0 1.35603,-2.7201 2.5576,-5.130329 3.94949,-7.853085 z"
   id="path148" />
<path
   fill="#dfdfdf"
   opacity="1"
   stroke="none"
   d="m 209.43775,7.4308036 c 0.89682,1.766743 1.60759,3.2078904 2.60129,5.2226914 -4.31288,0 -8.00944,0 -12.56842,0 2.14163,-3.9978794 4.11412,-7.6799664 6.37712,-11.90438136 1.38403,2.58433496 2.39401,4.47021496 3.59001,6.68168996 z"
   id="path150"
   style="fill:#f7f8fa;fill-opacity:1" />
<path
   fill="#dcdcdc"
   opacity="1"
   stroke="none"
   d="m 315.85471,62.796257 c -3.51071,0.0233 -6.60266,0.0233 -10.67117,0.0233 2.24729,-4.22998 4.11487,-7.745217 6.56293,-12.353134 2.21557,4.158638 3.97617,7.361541 5.58063,10.640834 0.15133,0.30932 -0.67905,1.09898 -1.47239,1.68897 z"
   id="path152" />
</svg>
